<?xml version="1.0" encoding="UTF-8"?>
<!DOCTYPE svg PUBLIC "-//W3C//DTD SVG 1.1//EN" "http://www.w3.org/Graphics/SVG/1.1/DTD/svg11.dtd">
<!-- Creator: CorelDRAW X8 -->
<svg xmlns="http://www.w3.org/2000/svg" xml:space="preserve" width="19.6184in" height="5.5624in" version="1.1" style="shape-rendering:geometricPrecision; text-rendering:geometricPrecision; image-rendering:optimizeQuality; fill-rule:evenodd; clip-rule:evenodd"
viewBox="0 0 26234 7438"
 xmlns:xlink="http://www.w3.org/1999/xlink">
 <defs>
  <style type="text/css">
   <![CDATA[
    .str0 {stroke:white;stroke-width:27.8336;stroke-linecap:round;stroke-linejoin:round}
    .fil0 {fill:none}
    .fil1 {fill:black}
    .fil2 {fill:yellow}
    .fil3 {fill:#1A1A1A;fill-rule:nonzero}
   ]]>
  </style>
 </defs>
 <g id="Layer_x0020_1">
  <metadata id="CorelCorpID_0Corel-Layer"/>
  <path class="fil0 str0" d="M24885 1139l327 -234c71,-67 164,-67 257,-45 70,23 141,93 163,186 23,48 71,209 94,257 22,0 47,23 70,23 93,22 164,70 234,118 116,45 164,186 116,302l-71 257c0,47 -22,93 -70,115 25,26 48,26 48,48 93,116 186,209 163,350 -25,141 -118,209 -186,327 -93,116 -189,372 -282,629 0,0 0,0 0,0 141,-48 282,0 350,116 282,536 -700,1331 -1188,1049 -48,-23 -93,-45 -118,-93 -23,-45 -45,-93 -45,-138 -212,-562 350,-1261 256,-1563 -25,-118 0,-234 94,-305l487 -349c-394,0 -606,-116 -792,-491 -116,398 -302,770 -652,959 -48,22 -163,93 -186,138 -48,48 -93,279 -93,350 -70,234 -96,398 -70,584 163,-71 301,-212 420,-305 45,-45 115,-68 209,-45 70,0 141,45 186,93 70,116 93,234 70,372 -48,235 -256,350 -443,491 -256,209 -468,421 -840,421 -93,0 -186,-48 -231,-142 -26,23 -48,23 -48,48 -235,187 -584,350 -864,187 -47,-23 -70,-71 -93,-116 -93,-212 -70,-491 -22,-770 -119,138 -212,257 -305,372 -257,350 -257,350 -677,350 -67,0 -138,-48 -209,-93 -47,-48 -70,-116 -70,-212 23,-581 350,-1213 747,-1655 257,-257 559,-488 909,-607 234,-68 629,-115 725,212 22,22 22,70 22,115 0,0 0,0 0,0 0,0 0,0 0,0 45,-115 93,-256 164,-372 209,-468 606,-1492 1213,-1492 138,22 256,138 256,279 0,93 0,186 -25,279l0 0 0 0zm-18681 3033c-141,208 -376,372 -607,465 -677,282 -1213,-23 -1261,-674 -70,93 -163,186 -256,279 -745,652 -1842,770 -2776,700 -488,-48 -1213,-186 -1283,-770 -45,-302 141,-607 352,-816 161,-163 373,-327 607,-375 67,-22 160,-22 231,48 71,45 93,116 93,186l25 209c0,93 -25,189 -95,234 -46,23 -232,212 -209,257 0,70 257,164 327,164 279,70 606,70 908,45 327,-45 1004,-209 1098,-607 -164,-93 -466,-115 -607,-138 -372,-70 -911,-116 -1142,-468 -350,-511 231,-1236 536,-1631 256,-282 933,-981 1261,-1097 606,-209 930,279 837,841 -93,513 -302,722 -837,744 -119,0 -212,-70 -257,-163l-48 -138c-209,138 -398,394 -513,558 -23,48 -94,164 -71,212 48,67 420,115 513,138 376,48 1168,141 1425,398 67,93 115,163 138,256 71,-93 118,-211 186,-279 212,-305 607,-747 1027,-677 118,23 234,71 305,164 45,45 70,67 93,138 70,420 -119,725 -376,1049 -67,119 -186,212 -301,305 0,0 0,0 0,0 208,-71 420,-141 629,-23 25,23 48,23 70,45 71,-301 257,-629 186,-885 -22,-93 0,-164 71,-234 141,-187 443,-466 699,-514 116,-22 257,48 305,164 23,70 45,163 45,256 186,-208 398,-394 677,-420 141,-22 279,71 279,234 23,164 0,350 -45,536 209,-279 488,-536 886,-513 116,0 234,93 257,234 45,279 -48,677 -141,1027 93,-26 211,0 279,70l70 68c328,-931 1239,-2006 2124,-1608 93,45 139,116 164,209 0,25 0,48 0,70 45,48 68,141 45,209 0,257 -138,561 -209,818 -22,71 -70,186 -93,327 23,-25 71,-25 93,-25 23,-161 71,-302 116,-418 48,-189 93,-349 141,-513 0,-25 23,-70 23,-118 -48,-93 -71,-187 -71,-302 0,-119 48,-212 164,-257 22,-22 141,-70 186,-93 0,-23 25,-70 25,-70 23,-94 68,-164 93,-235 161,-279 302,-536 674,-558 71,-23 164,0 235,70 47,68 70,164 47,257 -25,116 -211,395 -234,513 71,46 257,46 328,46 70,0 138,22 186,70 70,71 93,116 93,209l0 257c0,141 -93,234 -234,256 -139,26 -559,71 -722,119 -71,138 -141,443 -187,699 0,0 0,0 0,-25 164,-93 302,-209 488,-257 119,-45 257,26 305,119l93 163c71,116 23,257 -70,350 -373,279 -841,700 -1329,700 -70,0 -141,-26 -186,-94 -25,-25 -71,-70 -71,-93 -70,45 -141,93 -186,139 -211,141 -513,279 -747,163 -71,-22 -93,-70 -141,-115 -93,-212 -93,-469 -45,-748 -164,212 -350,443 -536,606 -48,23 -93,48 -164,48l-257 23c-70,0 -141,-23 -211,-93 -45,-48 -68,-116 -68,-186 0,-48 0,-71 0,-93 -234,208 -606,420 -863,443 -118,0 -234,-71 -282,-164 -68,-164 -23,-465 25,-700 -48,46 -93,93 -118,116 -186,212 -466,513 -722,629 -93,48 -209,25 -302,-45l-164 -164c-48,-70 -70,-141 -70,-208 0,-71 0,-141 0,-189l-350 420c-93,93 -257,118 -375,48 -93,-71 -161,-164 -209,-279 0,-26 -22,-26 -22,-48l0 0 0 0zm12921 -3966c536,-23 1399,-23 1704,397 45,71 68,139 45,209 -116,536 -793,956 -1235,1213 -116,71 -443,257 -748,420 279,23 536,0 793,23 234,25 468,70 699,164 257,93 491,256 539,535 93,771 -1540,1402 -2101,1611 -559,186 -2192,677 -2612,23 -46,-45 -46,-139 -23,-209 116,-398 815,-1075 1235,-1120l48 -279c-70,-48 -118,-93 -186,-212 -48,-93 -48,-186 0,-279 68,-141 164,-209 279,-302 23,-256 94,-538 164,-795 23,-138 71,-257 116,-372 -23,0 -45,0 -71,0 -302,47 -651,70 -908,-142 -71,-45 -93,-115 -93,-186 -26,-302 138,-488 327,-677 93,-67 186,-93 279,-67 232,67 607,163 863,115 139,-48 232,-115 350,-186 71,-48 164,-70 232,-70 118,-23 211,22 256,115l48 71 0 0 0 0zm-956 3895c209,-45 395,-93 536,-138 372,-93 747,-234 1097,-420 71,-48 257,-141 372,-257 -186,-71 -535,-93 -651,-93 -257,0 -539,0 -818,45 -116,0 -209,25 -302,48l-118 23c-23,115 -46,304 -71,397 -22,116 -22,232 -45,373 0,0 0,0 0,22l0 0 0 0zm770 -3032c-93,211 -212,491 -305,725 398,-189 911,-491 1191,-725 -257,-23 -629,0 -886,0z"/>
  <path id="_1" class="fil1" d="M24885 1139l327 -234c71,-67 164,-67 257,-45 70,23 141,93 163,186 23,48 71,209 94,257 22,0 47,23 70,23 93,22 164,70 234,118 116,45 164,186 116,302l-71 257c0,47 -22,93 -70,115 25,26 48,26 48,48 93,116 186,209 163,350 -25,141 -118,209 -186,327 -93,116 -189,372 -282,629 0,0 0,0 0,0 141,-48 282,0 350,116 282,536 -700,1331 -1188,1049 -48,-23 -93,-45 -118,-93 -23,-45 -45,-93 -45,-138 -212,-562 350,-1261 256,-1563 -25,-118 0,-234 94,-305l487 -349c-394,0 -606,-116 -792,-491 -116,398 -302,770 -652,959 -48,22 -163,93 -186,138 -48,48 -93,279 -93,350 -70,234 -96,398 -70,584 163,-71 301,-212 420,-305 45,-45 115,-68 209,-45 70,0 141,45 186,93 70,116 93,234 70,372 -48,235 -256,350 -443,491 -256,209 -468,421 -840,421 -93,0 -186,-48 -231,-142 -26,23 -48,23 -48,48 -235,187 -584,350 -864,187 -47,-23 -70,-71 -93,-116 -93,-212 -70,-491 -22,-770 -119,138 -212,257 -305,372 -257,350 -257,350 -677,350 -67,0 -138,-48 -209,-93 -47,-48 -70,-116 -70,-212 23,-581 350,-1213 747,-1655 257,-257 559,-488 909,-607 234,-68 629,-115 725,212 22,22 22,70 22,115 0,0 0,0 0,0 0,0 0,0 0,0 45,-115 93,-256 164,-372 209,-468 606,-1492 1213,-1492 138,22 256,138 256,279 0,93 0,186 -25,279l0 0 0 0zm-18681 3033c-141,208 -376,372 -607,465 -677,282 -1213,-23 -1261,-674 -70,93 -163,186 -256,279 -745,652 -1842,770 -2776,700 -488,-48 -1213,-186 -1283,-770 -45,-302 141,-607 352,-816 161,-163 373,-327 607,-375 67,-22 160,-22 231,48 71,45 93,116 93,186l25 209c0,93 -25,189 -95,234 -46,23 -232,212 -209,257 0,70 257,164 327,164 279,70 606,70 908,45 327,-45 1004,-209 1098,-607 -164,-93 -466,-115 -607,-138 -372,-70 -911,-116 -1142,-468 -350,-511 231,-1236 536,-1631 256,-282 933,-981 1261,-1097 606,-209 930,279 837,841 -93,513 -302,722 -837,744 -119,0 -212,-70 -257,-163l-48 -138c-209,138 -398,394 -513,558 -23,48 -94,164 -71,212 48,67 420,115 513,138 376,48 1168,141 1425,398 67,93 115,163 138,256 71,-93 118,-211 186,-279 212,-305 607,-747 1027,-677 118,23 234,71 305,164 45,45 70,67 93,138 70,420 -119,725 -376,1049 -67,119 -186,212 -301,305 0,0 0,0 0,0 208,-71 420,-141 629,-23 25,23 48,23 70,45 71,-301 257,-629 186,-885 -22,-93 0,-164 71,-234 141,-187 443,-466 699,-514 116,-22 257,48 305,164 23,70 45,163 45,256 186,-208 398,-394 677,-420 141,-22 279,71 279,234 23,164 0,350 -45,536 209,-279 488,-536 886,-513 116,0 234,93 257,234 45,279 -48,677 -141,1027 93,-26 211,0 279,70l70 68c328,-931 1239,-2006 2124,-1608 93,45 139,116 164,209 0,25 0,48 0,70 45,48 68,141 45,209 0,257 -138,561 -209,818 -22,71 -70,186 -93,327 23,-25 71,-25 93,-25 23,-161 71,-302 116,-418 48,-189 93,-349 141,-513 0,-25 23,-70 23,-118 -48,-93 -71,-187 -71,-302 0,-119 48,-212 164,-257 22,-22 141,-70 186,-93 0,-23 25,-70 25,-70 23,-94 68,-164 93,-235 161,-279 302,-536 674,-558 71,-23 164,0 235,70 47,68 70,164 47,257 -25,116 -211,395 -234,513 71,46 257,46 328,46 70,0 138,22 186,70 70,71 93,116 93,209l0 257c0,141 -93,234 -234,256 -139,26 -559,71 -722,119 -71,138 -141,443 -187,699 0,0 0,0 0,-25 164,-93 302,-209 488,-257 119,-45 257,26 305,119l93 163c71,116 23,257 -70,350 -373,279 -841,700 -1329,700 -70,0 -141,-26 -186,-94 -25,-25 -71,-70 -71,-93 -70,45 -141,93 -186,139 -211,141 -513,279 -747,163 -71,-22 -93,-70 -141,-115 -93,-212 -93,-469 -45,-748 -164,212 -350,443 -536,606 -48,23 -93,48 -164,48l-257 23c-70,0 -141,-23 -211,-93 -45,-48 -68,-116 -68,-186 0,-48 0,-71 0,-93 -234,208 -606,420 -863,443 -118,0 -234,-71 -282,-164 -68,-164 -23,-465 25,-700 -48,46 -93,93 -118,116 -186,212 -466,513 -722,629 -93,48 -209,25 -302,-45l-164 -164c-48,-70 -70,-141 -70,-208 0,-71 0,-141 0,-189l-350 420c-93,93 -257,118 -375,48 -93,-71 -161,-164 -209,-279 0,-26 -22,-26 -22,-48l0 0 0 0zm12921 -3966c536,-23 1399,-23 1704,397 45,71 68,139 45,209 -116,536 -793,956 -1235,1213 -116,71 -443,257 -748,420 279,23 536,0 793,23 234,25 468,70 699,164 257,93 491,256 539,535 93,771 -1540,1402 -2101,1611 -559,186 -2192,677 -2612,23 -46,-45 -46,-139 -23,-209 116,-398 815,-1075 1235,-1120l48 -279c-70,-48 -118,-93 -186,-212 -48,-93 -48,-186 0,-279 68,-141 164,-209 279,-302 23,-256 94,-538 164,-795 23,-138 71,-257 116,-372 -23,0 -45,0 -71,0 -302,47 -651,70 -908,-142 -71,-45 -93,-115 -93,-186 -26,-302 138,-488 327,-677 93,-67 186,-93 279,-67 232,67 607,163 863,115 139,-48 232,-115 350,-186 71,-48 164,-70 232,-70 118,-23 211,22 256,115l48 71 0 0 0 0zm-956 3895c209,-45 395,-93 536,-138 372,-93 747,-234 1097,-420 71,-48 257,-141 372,-257 -186,-71 -535,-93 -651,-93 -257,0 -539,0 -818,45 -116,0 -209,25 -302,48l-118 23c-23,115 -46,304 -71,397 -22,116 -22,232 -45,373 0,0 0,0 0,22l0 0 0 0zm770 -3032c-93,211 -212,491 -305,725 398,-189 911,-491 1191,-725 -257,-23 -629,0 -886,0z"/>
  <path class="fil2" d="M18214 2304c48,-395 398,-1117 561,-1492 328,-22 1354,-93 1540,164 -70,304 -1889,1261 -2101,1328l0 0zm-931 -1887c-141,139 -256,280 -256,466 301,234 863,22 1212,0 -47,234 -186,513 -256,792 -71,280 -141,584 -164,863 -115,94 -234,164 -304,305 93,138 118,138 256,164l-186 1306 279 -71c48,-93 141,-1283 234,-1168l235 -67c138,-26 208,-26 327,-48 465,-48 1678,-141 1864,327 -234,558 -2471,1328 -3427,1120 45,-514 350,-186 372,-655 -327,23 -956,629 -1026,911 536,816 5599,-1097 3847,-1774 -699,-279 -1563,-45 -2051,-256 280,-466 2215,-1072 2378,-1865 -256,-350 -1235,-305 -1633,-305l-138 -186c-350,48 -327,514 -1563,141l0 0 0 0z"/>
  <path class="fil2" d="M3403 1489c397,0 490,-141 584,-513 48,-350 -94,-677 -488,-536 -282,93 -934,770 -1146,1027 -1655,2005 677,1376 1306,1889 71,1470 -4056,1306 -2612,94l0 -212c-558,141 -1514,1283 257,1424 2612,209 3312,-1306 2962,-1703 -186,-186 -979,-279 -1258,-327 -491,-71 -1004,-116 -655,-745 189,-305 514,-700 889,-748l161 350 0 0z"/>
  <path class="fil2" d="M21573 3938c23,-536 398,-1095 957,-1120l-957 1120zm2031 118c-141,-375 -93,-584 -25,-956 118,-443 71,-491 420,-677 491,-257 629,-1049 629,-1563 -395,-25 -792,1002 -931,1329 -304,606 -442,1120 -442,1819l-469 279c-115,-443 141,-1026 257,-1444 116,-305 0,-211 -164,-305 421,-234 -327,-420 -1049,373 -350,398 -651,981 -677,1495 327,0 282,22 468,-234 164,-209 793,-979 957,-1072 -26,372 -328,1187 -186,1515 256,141 699,-257 837,-491l164 352c279,0 468,-189 677,-352 209,-161 443,-280 302,-488 -209,186 -466,420 -768,420l0 0 0 0z"/>
  <path class="fil2" d="M6692 2795c141,536 -511,1190 -93,1470l1167 -1306c-70,420 -327,863 -349,1261l163 186c395,-212 1142,-1213 1258,-1284 93,-70 48,-48 93,-48 0,328 -256,1191 -163,1402 256,0 699,-304 840,-491l-70 -93 -421 187c26,-398 234,-1120 189,-1447 -631,-23 -911,1049 -1469,1306 45,-488 443,-1165 395,-1563 -466,48 -863,981 -1284,1261 71,-350 398,-956 282,-1261 -163,48 -443,282 -538,420l0 0 0 0z"/>
  <path class="fil2" d="M10356 3892c22,-536 372,-1004 930,-1074 -67,189 -767,1004 -930,1074zm-421 514l257 0c302,-257 793,-1097 1142,-1284 -22,373 -327,1191 -163,1492 234,116 886,-301 792,-558 -186,-48 -186,279 -394,186 -187,-372 279,-1235 301,-1610l-208 -71 138 -138c-863,-398 -1842,1190 -1865,1983l0 0 0 0z"/>
  <path class="fil2" d="M12406 2400c26,488 189,-96 -115,1024 -93,305 -257,818 -23,1052 395,0 863,-420 1165,-632l-93 -163c-279,70 -488,420 -815,420 -119,-257 93,-1072 256,-1306 139,-93 652,-138 864,-163l0 -257c-1098,0 -398,-652 -350,-908 -234,22 -350,231 -443,442 -189,350 -71,302 -446,491l0 0 0 0z"/>
  <path class="fil2" d="M4991 3658c-23,-372 163,-1120 677,-978 45,301 -421,933 -677,978zm45 234c48,-141 443,-468 584,-629 186,-256 372,-490 304,-840 -445,-443 -1283,886 -1306,1283 -118,1236 1258,674 1399,232 -234,-139 -724,397 -981,-46l0 0z"/>
  <path class="fil2" d="M25353 4101c0,-327 257,-1120 443,-1399 164,-234 209,-164 45,-350l-581 421c138,442 -491,1190 -234,1633 279,138 979,-398 818,-677 -212,70 -212,350 -491,372l0 0 0 0z"/>
  <path class="fil2" d="M24955 1419c212,468 350,536 864,513l70 -257c-327,-186 -372,-70 -513,-558l-421 302 0 0 0 0z"/>
  <path class="fil3" d="M5620 6155c-138,-141 -325,-212 -511,-212 -420,0 -747,327 -747,748 0,115 45,256 93,349l-93 398 395 -118c96,70 234,93 352,93l0 0c395,0 745,-325 745,-722 0,-209 -93,-395 -234,-536l0 0zm-511 1142c-118,0 -211,-23 -327,-93l0 0 -234 48 48 -212 0 -22c-71,-116 -93,-212 -93,-327 0,-350 254,-629 606,-629 161,0 302,70 418,186 118,115 189,279 189,443 0,327 -282,606 -607,606l0 0 0 0zm325 -465c-23,0 -94,-48 -116,-48 -23,-23 -23,-23 -48,0 0,22 -45,70 -45,70 -23,23 -23,23 -48,0 -116,-48 -186,-93 -257,-209 -22,-25 26,-25 48,-96 23,-22 23,-22 0,-45 0,0 -22,-93 -48,-141 -22,-22 -22,-22 -45,-22 0,0 -22,0 -22,0 -26,0 -48,0 -48,22 -23,26 -71,71 -71,164 0,70 71,164 71,186 0,0 141,189 327,282 115,45 138,45 208,45 48,-22 119,-45 119,-93 23,-45 23,-93 23,-93 0,0 -23,0 -48,-22l0 0 0 0z"/>
  <path class="fil3" d="M6991 6056c90,0 163,20 228,65 65,42 113,110 147,197 36,90 53,212 53,370 0,160 -17,285 -53,375 -34,90 -82,155 -141,197 -60,40 -136,62 -226,62 -90,0 -166,-22 -228,-62 -62,-42 -110,-107 -147,-192 -34,-87 -51,-208 -51,-366 0,-223 34,-384 102,-483 76,-110 180,-163 316,-163l0 0zm8 217c-39,0 -73,14 -104,37 -29,25 -51,67 -68,129 -14,60 -23,150 -23,266 0,152 17,256 54,316 37,56 82,87 141,87 56,0 99,-28 133,-85 39,-65 59,-177 59,-332 0,-158 -20,-268 -54,-328 -36,-59 -82,-90 -138,-90l0 0zm1557 367c54,34 96,79 127,132 28,57 45,116 45,181 0,68 -17,132 -53,192 -34,59 -82,104 -139,132 -59,31 -135,45 -225,45 -96,0 -175,-14 -232,-42 -59,-28 -104,-73 -138,-133 -34,-56 -53,-121 -53,-194 0,-65 14,-121 42,-175 28,-51 70,-99 124,-138 -34,-37 -62,-76 -82,-119 -17,-42 -25,-84 -25,-129 0,-65 14,-122 45,-173 31,-50 73,-93 127,-121 56,-28 118,-42 189,-42 70,0 132,14 186,42 54,31 96,71 127,124 31,54 48,110 48,172 0,43 -9,82 -26,119 -14,39 -45,79 -87,127l0 0zm-257 -364c-36,0 -67,14 -93,39 -22,23 -34,57 -34,93 0,40 12,74 37,99 26,26 57,40 96,40 37,0 71,-14 93,-40 25,-25 40,-59 40,-99 0,-39 -15,-70 -40,-95 -25,-23 -56,-37 -99,-37zm12 485c-57,0 -102,17 -141,51 -37,34 -57,73 -57,118 0,51 20,91 54,124 36,34 82,51 141,51 59,0 104,-14 141,-48 34,-31 51,-70 51,-121 0,-48 -17,-90 -54,-124 -37,-34 -82,-51 -135,-51l0 0zm1117 -674l344 0 0 1204 -229 0 0 -990 -248 0 133 -214zm1331 389l-226 0c9,-130 48,-234 124,-307 77,-76 173,-113 291,-113 73,0 138,14 195,45 56,31 101,76 135,135 34,57 51,116 51,178 0,71 -23,147 -62,231 -43,82 -116,181 -226,294l-132 141 428 0 0 211 -837 0 0 -110 375 -380c90,-91 149,-164 180,-220 28,-54 45,-105 45,-150 0,-45 -17,-85 -48,-116 -31,-31 -70,-45 -118,-45 -51,0 -90,20 -124,57 -31,36 -51,84 -51,149l0 0zm1340 -93l-220 0c11,-90 42,-161 96,-214 73,-76 163,-113 276,-113 99,0 181,31 248,93 68,65 99,138 99,226 0,53 -14,101 -42,146 -31,45 -74,79 -130,107 73,23 133,60 172,116 42,54 62,119 62,192 0,107 -39,197 -118,274 -79,76 -181,112 -305,112 -118,0 -212,-36 -285,-107 -76,-70 -115,-166 -121,-288l226 0c8,63 31,110 64,139 34,31 77,45 127,45 54,0 99,-17 133,-51 37,-34 53,-76 53,-127 0,-53 -22,-99 -70,-138 -48,-37 -116,-57 -206,-57l0 -197c56,-6 96,-14 124,-25 26,-14 48,-31 62,-54 14,-23 23,-45 23,-73 0,-31 -11,-60 -34,-82 -23,-20 -54,-31 -90,-31 -34,0 -62,8 -91,28 -25,23 -45,48 -53,79l0 0zm1712 257c54,34 96,79 127,132 28,57 42,116 42,181 0,68 -17,132 -51,192 -33,59 -81,104 -141,132 -56,31 -132,45 -222,45 -99,0 -175,-14 -235,-42 -56,-28 -101,-73 -135,-133 -37,-56 -54,-121 -54,-194 0,-65 15,-121 43,-175 28,-51 70,-99 124,-138 -37,-37 -62,-76 -82,-119 -17,-42 -28,-84 -28,-129 0,-65 17,-122 48,-173 28,-50 70,-93 127,-121 53,-28 118,-42 189,-42 70,0 132,14 186,42 54,31 96,71 127,124 31,54 48,110 48,172 0,43 -9,82 -26,119 -17,39 -45,79 -87,127zm-257 -364c-36,0 -67,14 -93,39 -22,23 -36,57 -36,93 0,40 14,74 39,99 25,26 56,40 96,40 37,0 68,-14 93,-40 25,-25 37,-59 37,-99 0,-39 -12,-70 -37,-95 -25,-23 -56,-37 -99,-37zm12 485c-57,0 -102,17 -141,51 -37,34 -57,73 -57,118 0,51 17,91 54,124 36,34 82,51 141,51 59,0 104,-14 141,-48 34,-31 51,-70 51,-121 0,-48 -17,-90 -54,-124 -37,-34 -82,-51 -135,-51l0 0zm1119 -674l567 0 0 211 -395 0 -47 220c14,-2 25,-5 39,-8 14,-3 25,-3 37,-3 110,0 200,37 273,113 74,73 110,169 110,285 0,118 -42,217 -121,296 -79,82 -178,121 -293,121 -102,0 -192,-31 -265,-87 -74,-59 -122,-141 -144,-243l242 0c17,37 43,68 74,85 28,20 62,31 98,31 51,0 93,-20 130,-56 37,-37 54,-82 54,-139 0,-56 -17,-101 -51,-138 -34,-34 -73,-53 -119,-53 -25,0 -50,5 -76,19 -22,12 -48,31 -70,57l-186 -43 143 -668 0 0zm1521 -31l194 96 -208 412c101,0 189,36 259,110 73,73 110,163 110,273 0,105 -37,192 -113,265 -73,74 -160,110 -265,110 -110,0 -200,-36 -273,-112 -71,-77 -108,-164 -108,-263 0,-36 6,-73 17,-110 12,-39 37,-96 76,-175l311 -606zm-28 725c-43,0 -79,14 -108,45 -28,31 -42,70 -42,116 0,48 14,87 45,118 31,31 65,48 107,48 43,0 79,-17 108,-48 31,-31 47,-70 47,-118 0,-46 -16,-85 -45,-116 -31,-31 -67,-45 -112,-45l0 0zm1308 541l-194 -96 208 -411c-101,0 -189,-37 -259,-110 -71,-74 -107,-164 -107,-274 0,-104 36,-195 110,-265 73,-73 163,-110 268,-110 107,0 200,37 271,113 73,76 110,163 110,262 0,37 -6,73 -17,110 -12,37 -37,96 -79,175l-311 606zm29 -725c45,0 79,-14 110,-45 28,-31 42,-70 42,-115 0,-48 -14,-88 -45,-119 -31,-31 -65,-48 -107,-48 -43,0 -79,17 -110,48 -31,31 -46,71 -46,116 0,48 15,87 46,118 28,31 67,45 110,45zm1551 43c54,34 96,79 124,132 31,57 45,116 45,181 0,68 -17,132 -51,192 -36,59 -81,104 -141,132 -59,31 -132,45 -222,45 -99,0 -175,-14 -235,-42 -56,-28 -101,-73 -138,-133 -34,-56 -51,-121 -51,-194 0,-65 15,-121 43,-175 25,-51 67,-99 124,-138 -37,-37 -65,-76 -82,-119 -20,-42 -28,-84 -28,-129 0,-65 17,-122 45,-173 31,-50 73,-93 130,-121 53,-28 115,-42 189,-42 70,0 132,14 186,42 53,31 96,71 127,124 31,54 45,110 45,172 0,43 -9,82 -23,119 -17,39 -45,79 -87,127l0 0zm-257 -364c-39,0 -70,14 -93,39 -25,23 -37,57 -37,93 0,40 15,74 40,99 25,26 56,40 93,40 40,0 71,-14 96,-40 25,-25 37,-59 37,-99 0,-39 -12,-70 -37,-95 -25,-23 -59,-37 -99,-37zm9 485c-54,0 -102,17 -139,51 -36,34 -56,73 -56,118 0,51 17,91 54,124 34,34 81,51 141,51 56,0 104,-14 138,-48 37,-31 53,-70 53,-121 0,-48 -19,-90 -56,-124 -34,-34 -79,-51 -135,-51l0 0zm1328 -705l195 96 -209 412c102,0 189,36 260,110 73,73 110,163 110,273 0,105 -37,192 -113,265 -74,74 -161,110 -265,110 -110,0 -201,-36 -274,-112 -70,-77 -107,-164 -107,-263 0,-36 6,-73 17,-110 11,-39 36,-96 76,-175l310 -606zm-28 725c-42,0 -79,14 -107,45 -28,31 -42,70 -42,116 0,48 14,87 45,118 31,31 65,48 107,48 42,0 79,-17 107,-48 31,-31 48,-70 48,-118 0,-46 -17,-85 -45,-116 -31,-31 -68,-45 -113,-45l0 0zm956 -694l793 0 0 118 -545 1117 -194 -93 454 -928 -508 0 0 -214 0 0z"/>
 </g>
</svg>
